<?xml version="1.0" encoding="UTF-8"?>
<!DOCTYPE svg  PUBLIC '-//W3C//DTD SVG 1.1//EN'  'http://www.w3.org/Graphics/SVG/1.1/DTD/svg11.dtd'>
<svg version="1.1" xmlns="http://www.w3.org/2000/svg">
<defs>
<font id="DarkerGrotesque-SemiBold" horiz-adv-x="554">
<font-face font-family="Darker Grotesque SemiBold" font-weight="600" ascent="800" bbox="-20 -204.028 811 796" cap-height="563" descent="-200" panose-1="0 0 0 0 0 0 0 0 0 0" underline-position="-125" underline-thickness="50" unicode-range="U+0020-2044" units-per-em="1000" x-height="409"/>
<missing-glyph/>
<glyph glyph-name="space" horiz-adv-x="228" unicode=" "/>
<glyph d="M82 152q-7 108 -15.5 186t-10 127.5t10 73.5t43.5 24q31 0 42 -24t9.5 -74t-9.5 -128t-14 -185l-8 2t-20 2q-11 0 -19.5 -2zM111 -9q-30 0 -40 15t-10 37q0 20 10 35t40 15q28 0 38.5 -14.5t10.5 -35.5q0 -22 -10.5 -37t-38.5 -15z" glyph-name="exclam" horiz-adv-x="205" unicode="!"/>
<glyph d="M37 369v57h21q25 0 33 9.5t8 27.5q-32 -2 -45.5 12.5t-13.5 38.5q0 20 10.5 34.5t39.5 14.5q23 0 35.5 -14t12.5 -54q0 -54 -17.5 -90t-61.5 -36h-22zM184 369v57h21q25 0 33 9.5t8 27.5q-32 -2 -45.5 12.5t-13.5 38.5q0 20 10.5 34.5t39.5 14.5q23 0 35.5 -14t12.5 -54 q0 -54 -17.5 -90t-61.5 -36h-22z" glyph-name="quotedbl" horiz-adv-x="315" unicode='"'/>
<glyph d="M87 0l61 152h-120v72h149l48 119h-142v72h166l49 148h79l-61 -148h134l49 148h79l-60 -148h118v-72h-147l-48 -119h143v-72h-167l-50 -152h-79l62 152h-135l-50 -152h-78zM239 225v-1h140l48 119h-140z" glyph-name="numbersign" horiz-adv-x="691" unicode="#"/>
<glyph d="M247 -109l4 99q-49 4 -94 25.5t-75.5 62t-35.5 102.5l82 12q0 -2 1.5 -16t9 -33t24.5 -37.5t46.5 -31t76.5 -12.5t74.5 14.5t39.5 33.5t12 34q1 32 -18.5 51t-51 30.5t-69.5 21t-75.5 21.5t-68.5 30.5t-49 49t-16 78.5q4 61 53.5 100t133.5 46l-4 100h83l-5 -102 q48 -7 87 -29.5t61.5 -61.5t21.5 -94l-79 -11q0 41 -16 65.5t-40.5 37t-49 16.5t-39.5 4q-48 0 -83.5 -21.5t-36.5 -58.5q-1 -32 18.5 -51t51.5 -30.5t70 -20.5t76 -20t69 -29.5t49 -49.5t16 -80q-2 -41 -26 -71.5t-63.5 -49t-86.5 -24.5l5 -100h-83z" glyph-name="dollar" horiz-adv-x="544" unicode="$"/>
<glyph d="M132 332q-54 0 -79 32.5t-25 87.5t24.5 88t79.5 33q54 0 79.5 -33t25.5 -88q0 -53 -25.5 -86.5t-79.5 -33.5zM116 0l-58 41l228 258l191 264l57 -40l-219 -247zM131 385q28 0 39.5 19t11.5 49t-11.5 49.5t-39.5 19.5t-39.5 -19t-11.5 -50q0 -30 11.5 -49t39.5 -19z M460 -10q-54 0 -78.5 33t-24.5 89q0 54 24 87t79 33q54 0 79 -33t25 -87t-25 -88t-79 -34zM459 43q28 0 40 19.5t12 48.5q0 30 -12 50t-40 20t-39.5 -19.5t-11.5 -50.5q0 -29 11.5 -48.5t39.5 -19.5z" glyph-name="percent" horiz-adv-x="592" unicode="%"/>
<glyph d="M593 -2q-37 15 -69.5 32.5t-68.5 41.5q-41 -40 -94 -60t-107.5 -21t-100.5 17.5t-74.5 56t-28.5 93.5q0 39 15 66t37 44.5t44 29t35 18.5q-8 11 -22.5 30t-26 44.5t-11.5 57.5q0 40 21 67.5t55 41.5t72 14.5t72 -12.5t55.5 -39.5t21.5 -66.5q0 -34 -17.5 -60.5t-42 -45.5 t-45 -30t-26.5 -14q11 -14 32.5 -36.5t50 -47t58.5 -46.5q11 17 21 45t9.5 57t-20.5 50l70 47q8 -12 17.5 -38t13 -61t-4.5 -73t-33 -73q29 -20 56.5 -35.5t66.5 -30.5zM241 342q7 3 24 12t35 22t31.5 29.5t14.5 35.5q2 26 -13 41.5t-37.5 21t-45.5 0t-38.5 -21t-15.5 -42.5 q1 -43 45 -98zM390 119q-45 34 -89 76t-75 81q-37 -18 -65 -42t-28 -66q0 -44 27.5 -69.5t69.5 -32.5t85.5 6t74.5 47z" glyph-name="ampersand" horiz-adv-x="641" unicode="&amp;"/>
<glyph d="M52 369v57h21q25 0 33 9.5t8 27.5q-32 -2 -45.5 12.5t-13.5 38.5q0 20 10.5 34.5t39.5 14.5q23 0 35.5 -14t12.5 -54q0 -54 -17.5 -90t-61.5 -36h-22z" glyph-name="quotesingle" horiz-adv-x="192" unicode="'"/>
<glyph d="M233 -199l-19.5 15.5t-47.5 47.5t-56.5 79.5t-47.5 111.5t-19 145q-1 81 18.5 145.5t48 113t56.5 80.5t47.5 48l19.5 16l64 -65q-4 -3 -25 -17t-50 -40t-57 -65t-47 -93t-19 -123q0 -71 20 -125t49.5 -93.5t59 -64.5t49.5 -37l20 -12z" glyph-name="parenleft" horiz-adv-x="309" unicode="("/>
<glyph d="M67 -199l-64 67l19.5 12t49 37t59 64.5t49.5 93.5t20 125q0 69 -19 123t-47 93t-57 65t-50 40t-24 17l64 65q-1 0 18.5 -16t48 -48t56.5 -80.5t47.5 -113t19.5 -145.5t-19.5 -145t-47.5 -111.5t-56.5 -79.5t-47.5 -47.5z" glyph-name="parenright" horiz-adv-x="299" unicode=")"/>
<glyph d="M353 418l-132 -23l93 -95l-62 -45l-62 117l-62 -117l-62 45l94 95l-132 23l24 72l119 -60l-19 133h77l-19 -133l119 60z" glyph-name="asterisk" horiz-adv-x="380" unicode="*"/>
<glyph d="M148 84v110h-110v60h110v110h60v-110h110v-60h-110v-110h-60z" glyph-name="plus" horiz-adv-x="355" unicode="+"/>
<glyph d="M53 -95v58h21q25 0 33 9.5t8 27.5q-32 -2 -45.5 12t-13.5 38q0 21 10.5 35.5t39.5 14.5q23 0 35.5 -14.5t12.5 -53.5q0 -54 -17.5 -90.5t-61.5 -36.5h-22z" glyph-name="comma" horiz-adv-x="206" unicode=","/>
<glyph d="M40 195v60h222v-60h-222z" glyph-name="hyphen" horiz-adv-x="317" unicode="-"/>
<glyph d="M87 0q-31 0 -41.5 15.5t-10.5 38.5q0 21 10.5 36.5t41.5 15.5q29 0 39.5 -15.5t10.5 -36.5q0 -23 -10.5 -38.5t-39.5 -15.5z" glyph-name="period" horiz-adv-x="192" unicode="."/>
<glyph d="M25 0l254 563h80l-254 -563h-80z" glyph-name="slash" horiz-adv-x="369" unicode="/"/>
<glyph d="M265 -14q-122 0 -179.5 79.5t-57.5 214.5q0 89 24.5 154.5t77 102t135.5 36.5q81 0 133.5 -36t78 -102t25.5 -155q0 -87 -25.5 -153.5t-78 -103.5t-133.5 -37zM264 56q83 0 121.5 58t38.5 166q0 107 -38 165.5t-122 58.5q-81 0 -119.5 -56.5t-38.5 -167.5 q0 -107 37 -165.5t121 -58.5z" glyph-name="zero" horiz-adv-x="529" unicode="0"/>
<glyph d="M314 72v-72h-251v72h91v382q-9 -34 -27 -52.5t-38 -27t-35.5 -10t-20.5 -1.5v89q6 -1 25.5 1.5t42.5 13.5t41 34t19 62h74v-491h79z" glyph-name="one" horiz-adv-x="354" unicode="1"/>
<glyph d="M40 0v69q1 1 26.5 16t65.5 41.5t83.5 60t80.5 71.5t56 75q23 48 14.5 85.5t-40 59t-77.5 21.5q-57 -1 -91 -37t-28 -108l-77 10q-5 64 20.5 109.5t73.5 70t111 24.5q54 0 96 -19.5t67.5 -54t28.5 -78.5t-21 -93q-19 -37 -52.5 -72.5t-73.5 -66.5t-77.5 -55.5t-65 -39 t-34.5 -17.5h335v-72h-421z" glyph-name="two" horiz-adv-x="506" unicode="2"/>
<glyph d="M259 -10q-62 0 -113.5 22.5t-82 67t-30.5 112.5l79 10q3 -69 46 -104t102 -35q56 0 94.5 29t38.5 77q0 38 -19.5 59t-46.5 30t-50 9h-73v45h75q45 0 74.5 20.5t29.5 61.5q0 51 -35.5 80.5t-93.5 29.5q-47 0 -76.5 -20t-43.5 -47.5t-15 -51.5l-75 11q1 16 11 45t33 59.5 t63 51.5t101 21q96 0 151 -43.5t55 -117.5q0 -50 -27 -83t-76 -42q49 -9 82.5 -45t33.5 -89q0 -50 -27.5 -87t-75.5 -56.5t-109 -19.5z" glyph-name="three" horiz-adv-x="504" unicode="3"/>
<glyph d="M28 115v72q49 22 90.5 64t71.5 95t46.5 109.5t16.5 107.5h89q0 -68 -29 -138t-80.5 -132t-118.5 -106h205v94h83v-94h74v-72h-74v-115h-83v115h-291z" glyph-name="four" horiz-adv-x="511" unicode="4"/>
<glyph d="M257 -10q-92 0 -146 45t-68 110l83 11q1 -6 7 -21t21 -32.5t40.5 -29.5t64.5 -12q43 0 72.5 17t45.5 45t18 58q3 33 -11 63.5t-44 50.5t-76 20q-44 0 -70 -14.5t-37.5 -29.5t-11.5 -16l-84 15l29 293h360v-72h-300l-20 -190l8.5 10.5t27 25t48 25.5t72.5 11 q68 0 111.5 -28.5t63 -72.5t16.5 -92q-4 -48 -30.5 -91.5t-74.5 -71t-115 -27.5z" glyph-name="five" horiz-adv-x="517" unicode="5"/>
<glyph d="M277 -10q-81 0 -132.5 38t-75.5 101t-24 139q0 57 15.5 112t46.5 98.5t78 69t110 25.5q56 0 92 -16.5t55.5 -38.5t27.5 -38.5l8 -16.5l-81 -17l-10 13.5t-33 27t-63 13.5q-50 0 -91 -33t-62 -94.5t-10 -148.5q1 15 12 39t32.5 47.5t56 39t83.5 14.5q64 -1 105.5 -28.5 t60.5 -70t15.5 -90t-29 -89.5t-72.5 -69t-115 -27zM281 60q51 -1 83.5 24t45 61.5t4 73.5t-38.5 63t-81 28q-49 1 -83.5 -20.5t-52.5 -56t-18 -70.5q11 -50 50 -76.5t91 -26.5z" glyph-name="six" horiz-adv-x="537" unicode="6"/>
<glyph d="M199 0h-83q0 115 33.5 208t92 163.5t133.5 119.5h-333v72h413v-70q-24 -16 -57 -42t-67.5 -64.5t-64.5 -93t-48.5 -127t-18.5 -166.5z" glyph-name="seven" horiz-adv-x="495" unicode="7"/>
<glyph d="M273 -10q-67 0 -119.5 18.5t-83 55t-30.5 89.5q0 55 37.5 95t101.5 50q-45 9 -68 31.5t-30.5 48t-7.5 44.5q0 45 25.5 79t70.5 53t104 19q61 0 106 -19.5t70 -53.5t25 -78q0 -19 -7.5 -44.5t-30.5 -48t-68 -31.5q65 -12 102.5 -50.5t37.5 -94.5q0 -54 -31.5 -90.5 t-84.5 -54.5t-119 -18zM273 319q57 0 92 21t35 66q0 49 -36 75.5t-91 26.5q-57 0 -91.5 -27t-34.5 -75q0 -46 36 -66.5t90 -20.5zM273 56q71 0 112 31t41 80q0 55 -41 82.5t-112 27.5q-70 0 -111 -27.5t-41 -82.5q0 -49 41 -80t111 -31z" glyph-name="eight" horiz-adv-x="550" unicode="8"/>
<glyph d="M259 -10q-63 0 -103 17.5t-62.5 41t-31.5 41.5t-9 19l81 19q0 -1 6 -10.5t20.5 -22t38.5 -22t60 -9.5q78 0 116.5 68t34.5 199q-2 -15 -13.5 -37.5t-32.5 -44.5t-53.5 -37t-75.5 -15q-67 0 -110.5 27t-64 69t-18 89.5t27.5 89.5t73 69t118 27q85 0 137 -40.5t74.5 -107.5 t18.5 -146q-3 -79 -26 -143.5t-72.5 -102.5t-133.5 -38zM252 249q65 0 102.5 39.5t44.5 98.5q-14 57 -51 85t-88 28q-53 0 -85.5 -25t-44.5 -62.5t-2.5 -75t40.5 -63t84 -25.5z" glyph-name="nine" horiz-adv-x="538" unicode="9"/>
<glyph d="M106 268q-30 0 -40.5 15t-10.5 38q0 21 10.5 36.5t40.5 15.5t40 -16t10 -36q0 -23 -10 -38t-40 -15zM106 38q-30 0 -40.5 15.5t-10.5 37.5q0 21 10.5 36.5t40.5 15.5t40 -15.5t10 -36.5q0 -22 -10 -37.5t-40 -15.5z" glyph-name="colon" horiz-adv-x="212" unicode=":"/>
<glyph d="M110 305q-31 0 -41 15t-10 38q0 21 10 36.5t41 15.5q29 0 39.5 -15.5t10.5 -36.5q0 -23 -10.5 -38t-39.5 -15zM58 -95v58h21q25 0 33.5 9.5t8.5 27.5q-33 -2 -46.5 12t-13.5 38q0 21 11 35.5t39 14.5q23 0 35.5 -14.5t12.5 -53.5q0 -54 -17.5 -90.5t-60.5 -36.5h-23z" glyph-name="semicolon" horiz-adv-x="211" unicode=";"/>
<glyph d="M363 395v-68l-253 -96l253 -96v-70l-320 166z" glyph-name="less" horiz-adv-x="411" unicode="&lt;"/>
<glyph d="M40 261v57h306v-57h-306zM40 128v57h306v-57h-306z" glyph-name="equal" horiz-adv-x="401" unicode="="/>
<glyph d="M43 395l320 -164l-320 -166v70l253 96l-253 96v68z" glyph-name="greater" horiz-adv-x="408" unicode="&gt;"/>
<glyph d="M251 155h-75q0 33 15.5 59t38 48.5t45 43.5t38 45t17.5 53q1 41 -25.5 66.5t-73.5 25.5q-43 0 -65.5 -20t-30.5 -48t-8 -54h-79q-6 48 10.5 92.5t58 73.5t110.5 29q51 0 93 -19t67 -54t25 -82q0 -40 -16 -68t-40 -50t-48 -42t-40.5 -43.5t-16.5 -55.5zM214 -9 q-30 0 -40 15.5t-10 36.5t10 35.5t40 14.5q28 0 38 -14.5t10 -35.5q0 -23 -10 -37.5t-38 -14.5z" glyph-name="question" horiz-adv-x="442" unicode="?"/>
<glyph d="M358 39q-62 0 -91 43.5t-19 108.5q6 43 28 77t54 53.5t69 19.5q39 0 65 -17.5t38 -47.5l7 52h64l-32 -180q-3 -19 -3 -36.5t7.5 -29t27.5 -11.5q37 0 62.5 25t37.5 65t9.5 84.5t-22.5 82.5q-26 48 -72 78.5t-102 42.5t-112 4.5t-102 -33.5q-61 -34 -98 -96.5t-41 -140.5 q-5 -71 21 -123t74 -84t110 -43t130.5 1t135.5 47l42 -71q-72 -40 -155 -55.5t-162.5 -4t-144.5 50t-103 106t-35 166.5q2 104 52.5 185t134.5 123q62 30 135 37t143 -10.5t124.5 -58t80.5 -104.5q20 -50 17 -104t-26 -101.5t-63 -77t-95 -29.5q-42 0 -58 20.5t-14 50.5 q-21 -31 -52 -48t-67 -17zM378 86q31 0 50 12t29.5 29.5t15.5 34.5t7 29q7 45 -7.5 73.5t-60.5 28.5q-39 0 -69 -28t-37 -76q-6 -45 12 -74t60 -29z" glyph-name="at" horiz-adv-x="784" unicode="@"/>
<glyph d="M19 0l189 563h137l193 -563h-89l-54 168h-234l-54 -168h-88zM278 528l-95 -294h190z" glyph-name="A" unicode="A"/>
<glyph d="M58 0v563h213q33 0 71 -4.5t71 -19t54 -44.5t21 -81q0 -32 -12.5 -59.5t-45.5 -44.5t-94 -19v-4q71 -1 109.5 -20t53.5 -49.5t15 -67.5q0 -53 -23 -83t-59 -44.5t-76.5 -18.5t-76.5 -4h-221zM140 323h121q41 0 73.5 4.5t51.5 22.5t19 56q0 41 -20 59.5t-53 23.5t-70 5 h-122v-171zM140 68h132q43 0 78 5.5t56.5 25t21.5 61.5q0 43 -22.5 64t-60 27.5t-81.5 6.5h-124v-190z" glyph-name="B" horiz-adv-x="549" unicode="B"/>
<glyph d="M300 -10q-78 0 -141.5 32.5t-100 97t-36.5 160.5q1 95 37 160.5t99.5 99t145.5 33.5q109 0 176 -58t83 -152h-86q-8 48 -34.5 77t-63 42t-75.5 13q-95 0 -147 -54.5t-52 -155.5q0 -106 51 -161.5t145 -55.5q65 0 116 31.5t63 102.5h87q-17 -94 -84 -153t-183 -59z" glyph-name="C" horiz-adv-x="599" unicode="C"/>
<glyph d="M562 282q0 -111 -43 -172.5t-120.5 -85.5t-181.5 -24h-152v563h152q104 0 181.5 -31.5t120.5 -93.5t43 -156zM148 70h91q71 0 124 16.5t82 62.5t29 134q0 105 -64 156.5t-171 51.5h-91v-421z" glyph-name="D" horiz-adv-x="597" unicode="D"/>
<glyph d="M137 68h318v-68h-400v563h390v-72h-308v-171h240v-69h-240v-183z" glyph-name="E" horiz-adv-x="490" unicode="E"/>
<glyph d="M150 0h-82v563h395v-72h-313v-159h243v-69h-243v-263z" glyph-name="F" horiz-adv-x="477" unicode="F"/>
<glyph d="M291 -12q-82 0 -142.5 34t-93.5 98.5t-32 158.5t36.5 159.5t98.5 100t147 34.5q110 0 174 -49.5t84 -144.5l-80 -11q-16 68 -65 97.5t-113 29.5q-102 0 -150.5 -56.5t-50.5 -154.5q0 -103 54.5 -159.5t153.5 -56.5q68 0 118 34.5t62 106.5h-139v63h221v-272h-57l-19 111 h-2q-10 -26 -34.5 -54.5t-67 -48.5t-103.5 -20z" glyph-name="G" horiz-adv-x="616" unicode="G"/>
<glyph d="M146 0h-83v563h83v-242h294v242h82v-563h-82v256h-294v-256z" glyph-name="H" horiz-adv-x="585" unicode="H"/>
<glyph d="M294 72v-72h-235v72h77v419h-77v72h235v-72h-76v-419h76z" glyph-name="I" horiz-adv-x="360" unicode="I"/>
<glyph d="M215 -10q-46 0 -86 17.5t-64.5 55t-24.5 97.5h78q0 -23 8 -45.5t28.5 -37.5t58.5 -15q47 0 70 26.5t23 93.5v316h-113v65h196v-369q0 -64 -15.5 -109.5t-53 -70t-105.5 -24.5z" glyph-name="J" horiz-adv-x="451" unicode="J"/>
<glyph d="M68 0v563h83v-279l273 279h108v-11l-231 -221l243 -320v-11h-96l-208 274l-89 -86v-188h-83z" glyph-name="K" horiz-adv-x="566" unicode="K"/>
<glyph d="M65 0v563h83v-491h295v-72h-378z" glyph-name="L" horiz-adv-x="469" unicode="L"/>
<glyph d="M58 0v563h144l158 -526h2l155 526h144v-563h-85l5 524h-2l-158 -524h-123l-157 524h-2l4 -524h-85z" glyph-name="M" horiz-adv-x="719" unicode="M"/>
<glyph d="M451 563h85v-563h-157l-237 526h-2v-526h-85v563h147l247 -526h2v526z" glyph-name="N" horiz-adv-x="594" unicode="N"/>
<glyph d="M297 -14q-135 0 -206 79.5t-71 214.5q0 89 30.5 154.5t92 102t154.5 36.5q135 0 205.5 -79.5t70.5 -213.5q0 -87 -31.5 -153.5t-93 -103.5t-151.5 -37zM296 66q97 0 146 60t49 154t-48.5 154.5t-146.5 60.5q-96 0 -145.5 -58t-49.5 -157q0 -62 21 -110.5t64.5 -76 t109.5 -27.5z" glyph-name="O" horiz-adv-x="608" unicode="O"/>
<glyph d="M143 0h-83v563h220q93 0 144 -46t51 -138q0 -83 -52.5 -129t-142.5 -46h-137v-204zM270 494h-127v-227h127q60 0 94.5 28t34.5 85q0 59 -34 86.5t-95 27.5z" glyph-name="P" horiz-adv-x="494" unicode="P"/>
<glyph d="M379 -121q-22 0 -44.5 6t-38.5 29t-18 73q-119 11 -181.5 89t-62.5 204q0 88 30.5 154t92.5 102.5t155 36.5q90 0 151.5 -36t93 -102t31.5 -154q0 -120 -59 -199.5t-173 -92.5q1 -22 8.5 -33.5t36.5 -11.5q9 0 23.5 6t24.5 6l3 -63q-2 0 -17 -3.5t-32 -7t-24 -3.5z M311 68q96 0 144.5 58t48.5 157q0 97 -48 156t-145 59q-95 0 -144 -56.5t-49 -158.5q0 -98 47.5 -156.5t145.5 -58.5z" glyph-name="Q" horiz-adv-x="619" unicode="Q"/>
<glyph d="M59 0v563h197q108 0 167.5 -35.5t59.5 -127.5q0 -64 -32.5 -107t-97.5 -43q39 0 58 -17t26 -42.5t9 -52.5t6 -49t16 -31.5t41 1.5v-50q-14 -12 -36.5 -16.5t-44.5 3t-37.5 31t-15.5 68.5q0 53 -6 83t-28 44t-69 16.5t-129 -0.5v-238h-84zM143 300h116q51 0 84 6.5 t49.5 26.5t16.5 61q0 47 -20 68t-58.5 26.5t-93.5 5.5h-94v-194z" glyph-name="R" horiz-adv-x="543" unicode="R"/>
<glyph d="M273 -12q-61 0 -117 19.5t-91.5 62t-36.5 110.5h84q0 -4 3.5 -22.5t19 -40t49.5 -37.5t95 -16q49 0 77.5 14t40 33t12.5 34q0 31 -19.5 50t-52.5 30.5t-72.5 21t-78.5 21t-71.5 30.5t-51 49.5t-15.5 78.5q3 69 65.5 108t161.5 39q58 0 108 -21t80 -63t30 -105h-81 q0 35 -15 56.5t-38 33.5t-48 16.5t-45 4.5q-57 0 -93.5 -21t-36.5 -57q-1 -32 19 -51t53 -30t72.5 -20t79 -20t72 -29.5t51 -50t16.5 -79.5q-3 -47 -32.5 -80.5t-79.5 -51t-114 -17.5z" glyph-name="S" horiz-adv-x="540" unicode="S"/>
<glyph d="M10 491v72h430v-72h-173v-491h-83v491h-174z" glyph-name="T" horiz-adv-x="457" unicode="T"/>
<glyph d="M292 -14q-116 0 -177.5 66.5t-61.5 187.5v323h87v-322q0 -65 21 -103.5t55.5 -55.5t75.5 -17q45 0 79.5 16.5t54 55t19.5 104.5v322h87v-323q0 -123 -60.5 -188.5t-179.5 -65.5z" glyph-name="U" horiz-adv-x="586" unicode="U"/>
<glyph d="M435 563h91l-192 -563h-139l-192 563h90l171 -526z" glyph-name="V" horiz-adv-x="536" unicode="V"/>
<glyph d="M721 563h89l-151 -563h-134l-115 455l-117 -455h-135l-148 563h89l127 -526l139 525v1h89l138 -526z" glyph-name="W" horiz-adv-x="830" unicode="W"/>
<glyph d="M23 0l204 298l-186 265h100l140 -214l141 214h98l-183 -265l204 -298h-98l-162 244l-161 -244h-97z" glyph-name="X" horiz-adv-x="560" unicode="X"/>
<glyph d="M175 0v202l-192 361h93l142 -286l141 286h93l-194 -360v-203h-83z" glyph-name="Y" horiz-adv-x="439" unicode="Y"/>
<glyph d="M40 0v70l362 421h-333v72h439v-71l-358 -419h356v-73h-466z" glyph-name="Z" unicode="Z"/>
<glyph d="M255 -199h-220v802h220v-77h-139v-647l139 -1v-77z" glyph-name="bracketleft" horiz-adv-x="270" unicode="["/>
<glyph d="M262 0l-254 563h80l254 -563h-80z" glyph-name="backslash" horiz-adv-x="349" unicode="\"/>
<glyph d="M35 -199v77l144 1v647h-139v77h220v-802h-225z" glyph-name="bracketright" horiz-adv-x="280" unicode="]"/>
<glyph d="M28 320v23l183 219l184 -219v-23h-80l-103 169h-2l-102 -169h-80z" glyph-name="asciicircum" horiz-adv-x="423" unicode="^"/>
<glyph d="M30 0v60h462v-60h-462z" glyph-name="underscore" horiz-adv-x="547" unicode="_"/>
<glyph d="M117 632l-81 97v16h72l48 -101v-12h-39z" glyph-name="grave" horiz-adv-x="600" unicode="`"/>
<glyph d="M180 -9q-57 0 -92 26.5t-51.5 74t-16.5 108.5q0 93 38 152.5t122 59.5q45 0 73 -16t43.5 -36t21.5 -35h2v84h85v-409h-71l-14 73h-2q-6 -15 -22 -34.5t-44 -33.5t-72 -14zM213 62q59 0 82.5 38t23.5 99q0 64 -24.5 101t-81.5 37q-42 0 -66 -18.5t-34.5 -49.5t-10.5 -69 q0 -59 25 -98.5t86 -39.5z" glyph-name="a" horiz-adv-x="440" unicode="a"/>
<glyph d="M276 -10q-38 0 -65 12.5t-44 29.5t-25 31.5t-10 18.5h-2l-13 -82h-72v563h85l1 -250h2q1 4 8.5 19t23.5 33t43 31t68 13q89 0 131.5 -59t42.5 -152q0 -92 -42.5 -150t-131.5 -58zM252 62q44 0 69.5 19.5t36 51t10.5 66.5q0 34 -11.5 65t-38 50.5t-70.5 19.5 q-58 0 -87 -37.5t-29 -97.5q0 -62 30.5 -99.5t89.5 -37.5z" glyph-name="b" horiz-adv-x="485" unicode="b"/>
<glyph d="M230 -10q-58 0 -104 24t-72.5 70t-26.5 112q1 65 28 113t72.5 74.5t104.5 26.5q58 0 99.5 -22t65.5 -57.5t29 -75.5h-77q-8 39 -38 61t-76 22q-60 0 -93.5 -38t-33.5 -98q0 -64 32.5 -101.5t93.5 -37.5q43 0 75 22t40 64h77q-5 -42 -29.5 -78.5t-66.5 -58.5t-100 -22z " glyph-name="c" horiz-adv-x="461" unicode="c"/>
<glyph d="M218 -10q-90 0 -132 58.5t-42 149.5q0 94 42.5 152.5t131.5 58.5q40 0 67 -13t43.5 -31t24 -33t8.5 -19h2l1 250h85v-563h-72l-13 82h-2q-2 -4 -10.5 -18.5t-25 -31.5t-43.5 -29.5t-65 -12.5zM242 62q58 0 89 37.5t31 99.5q0 60 -29.5 97.5t-86.5 37.5q-44 0 -70.5 -19.5 t-38 -50.5t-11.5 -65q0 -35 10.5 -66.5t36 -51t69.5 -19.5z" glyph-name="d" horiz-adv-x="496" unicode="d"/>
<glyph d="M226 -10q-69 0 -113 30.5t-65 78.5t-21 101q-1 59 22.5 107t68 76t106.5 28q53 0 95.5 -23.5t67.5 -66t27 -100.5q0 -3 0.5 -11.5t0.5 -14.5h-309q0 -64 31.5 -99.5t87.5 -35.5q42 0 71.5 21.5t36.5 57.5h81q-9 -64 -58 -106.5t-130 -42.5zM109 236h222q-1 11 -6 29 t-16.5 35.5t-32.5 29.5t-54 12q-41 0 -64.5 -17.5t-35 -42t-13.5 -46.5z" glyph-name="e" horiz-adv-x="457" unicode="e"/>
<glyph d="M75 -2v351h-60v60h60v79q0 44 19.5 66t62.5 22h114v-66h-113v-101h108v-60h-108v-351h-83z" glyph-name="f" horiz-adv-x="278" unicode="f"/>
<glyph d="M145 -175v78h192v179h-2q-2 -4 -10 -18.5t-24.5 -31.5t-43.5 -29.5t-65 -12.5q-90 0 -132 58.5t-42 150.5q0 94 43 152t132 58q40 0 66.5 -13t42.5 -31t23.5 -33t8.5 -19h2l1 96h85v-461q0 -66 -25 -94.5t-83 -28.5h-169zM215 62q58 0 89 37.5t31 99.5q0 60 -29.5 97.5 t-86.5 37.5q-44 0 -70.5 -19.5t-38 -50.5t-11.5 -65q0 -35 10.5 -66.5t36 -51t69.5 -19.5z" glyph-name="g" horiz-adv-x="465" unicode="g"/>
<glyph d="M43 0v563h85v-249h2q1 4 8 19t22.5 32.5t41.5 30.5t66 13q53 0 84 -21t46 -54t19 -68.5t4 -65.5v-200h-81v201q0 38 -8 68.5t-29.5 48t-62.5 17.5q-42 0 -67 -20t-35 -52t-10 -68v-195h-85z" glyph-name="h" horiz-adv-x="466" unicode="h"/>
<glyph d="M97 454q-27 -1 -36 13t-9 35q0 18 9 32t36 14q26 0 35.5 -14t9.5 -32q0 -21 -9.5 -34.5t-35.5 -13.5zM55 0v409h83v-409h-83z" glyph-name="i" horiz-adv-x="192" unicode="i"/>
<glyph d="M121 448q-28 0 -37.5 14.5t-9.5 35.5q0 19 9.5 33.5t37.5 14.5q27 0 36.5 -14.5t9.5 -33.5q0 -21 -9.5 -35.5t-36.5 -14.5zM78 409h84v-496q0 -45 -20 -66.5t-62 -21.5h-71v66h69v518z" glyph-name="j" horiz-adv-x="215" unicode="j"/>
<glyph d="M129 0h-84v563h84v-362l198 210h104l-174 -175l177 -236h-100l-135 176l-70 -70v-106z" glyph-name="k" horiz-adv-x="439" unicode="k"/>
<glyph d="M50 0v563h82v-563h-82z" glyph-name="l" horiz-adv-x="182" unicode="l"/>
<glyph d="M38 0v409h72l2 -95h2q2 5 8.5 20t21 32.5t38.5 30t59 12.5q53 0 78.5 -28.5t36.5 -66.5h2q1 5 9 20t23.5 32.5t40.5 30t61 12.5q39 0 63.5 -16t38 -41.5t19 -54t6.5 -54.5t1 -43v-200h-71v201q0 15 -1.5 37.5t-9 45t-25 37t-49.5 14.5q-38 0 -59 -20t-30 -52.5t-9 -67.5 v-195h-71v201q0 15 -1.5 37.5t-9 45t-25 37t-49.5 14.5q-38 0 -59 -20t-30 -52.5t-9 -67.5v-195h-74z" glyph-name="m" horiz-adv-x="660" unicode="m"/>
<glyph d="M38 0v408h71l14 -94h2q1 4 8 19t23 32.5t43 30.5t68 13q54 0 84 -20.5t44 -53t17.5 -68.5t3.5 -67v-200h-81v201q0 38 -8 68.5t-29.5 48t-62.5 17.5q-42 0 -67 -20t-35 -52t-10 -68v-195h-85z" glyph-name="n" horiz-adv-x="456" unicode="n"/>
<glyph d="M227 -10q-102 0 -152 59t-50 150q-1 92 50 151t152 60q98 0 149 -58t51 -153q0 -59 -21.5 -106.5t-66 -75t-112.5 -27.5zM227 61q48 0 73.5 21t35.5 53.5t10 66.5t-10 66.5t-35.5 54t-73.5 21.5q-49 0 -75 -21.5t-36 -54t-10 -66.5t10 -66.5t36 -53.5t75 -21z" glyph-name="o" horiz-adv-x="465" unicode="o"/>
<glyph d="M279 -10q-39 0 -65.5 12.5t-43 29.5t-24 31.5t-9.5 18.5h-2v-257h-85v584h72l14 -96h2q1 4 8 19t23 33t42.5 31t66.5 13q90 0 133 -59t43 -152t-43.5 -150.5t-131.5 -57.5zM257 62q44 0 69.5 19.5t36 51t10.5 66.5q0 34 -11.5 65t-38 50.5t-70.5 19.5q-58 0 -87 -37.5 t-29 -97.5q0 -62 30.5 -99.5t89.5 -37.5z" glyph-name="p" horiz-adv-x="484" unicode="p"/>
<glyph d="M205 -10q-89 0 -132 58t-43 150q0 93 43 152t133 59q40 0 66.5 -13t42 -31t23 -33t8.5 -19h2l14 96h72v-584h-85v257h-2q-2 -4 -10 -18.5t-24.5 -31.5t-43 -29.5t-64.5 -12.5zM227 62q58 0 89 37.5t31 99.5q0 60 -29.5 97.5t-86.5 37.5q-44 0 -70.5 -19.5t-38 -50.5 t-11.5 -65q0 -35 10.5 -66.5t36 -51t69.5 -19.5z" glyph-name="q" horiz-adv-x="484" unicode="q"/>
<glyph d="M45 0v409h77l7 -111q6 27 23.5 52.5t49 42t80.5 16.5h17v-92h-18q-61 0 -94 -15.5t-46 -45t-13 -72.5v-184h-83z" glyph-name="r" horiz-adv-x="320" unicode="r"/>
<glyph d="M205 -10q-46 0 -86.5 20t-65 53.5t-24.5 72.5h78q0 -2 1 -15t9 -29t28.5 -28t58.5 -12q42 0 68 15t26 42q0 25 -19 39t-49 22.5t-63.5 16.5t-63 21.5t-48 37t-17.5 63.5q0 54 45.5 83.5t115.5 29.5q45 0 86 -14.5t67.5 -46.5t25.5 -86h-77q1 34 -15.5 51.5t-40.5 24 t-45 6.5q-40 0 -63 -14.5t-23 -38.5q0 -26 19 -39.5t49 -22t63.5 -16.5t63.5 -21t49.5 -37t19.5 -64q0 -59 -49 -86.5t-124 -27.5z" glyph-name="s" horiz-adv-x="409" unicode="s"/>
<glyph d="M156 0q-43 0 -62.5 22t-19.5 67v260h-63v60q31 0 46.5 5.5t21 28t5.5 71.5h69v-105h94v-60h-94v-283h95v-66h-92z" glyph-name="t" horiz-adv-x="291" unicode="t"/>
<glyph d="M185 -10q-52 0 -82.5 19.5t-45 51.5t-19 68t-4.5 70v210h82v-210q0 -36 7 -67t28.5 -49.5t65.5 -18.5q42 0 65 19t32.5 49t10.5 63l1 214h85v-409h-71l-14 85h-2q-4 -13 -19 -35.5t-44 -41t-76 -18.5z" glyph-name="u" horiz-adv-x="453" unicode="u"/>
<glyph d="M325 409h82v-15l-147 -394h-117l-148 393v16h81l126 -340h2z" glyph-name="v" horiz-adv-x="430" unicode="v"/>
<glyph d="M107 0l-102 394v16h81l80 -340h2l96 340h73l99 -340h2l79 340h81v-16l-103 -394h-117l-76 266h-2l-75 -266h-118z" glyph-name="w" horiz-adv-x="620" unicode="w"/>
<glyph d="M5 0l150 211l-142 198h92l102 -148l102 148h93l-142 -198l151 -211h-93l-111 160l-110 -160h-92z" glyph-name="x" horiz-adv-x="432" unicode="x"/>
<glyph d="M-2 -186v65h59q21 0 35 9.5t34 50.5l35 77l-160 393h86l115 -307l123 307h87l-210 -479q-22 -51 -40 -76t-40 -32.5t-55 -7.5h-69z" glyph-name="y" horiz-adv-x="424" unicode="y"/>
<glyph d="M35 0v61l263 286h-249v64h349v-61l-260 -285h260v-65h-363z" glyph-name="z" horiz-adv-x="438" unicode="z"/>
<glyph d="M295 -196q-95 -17 -141 2t-55 76.5t5 155.5q6 47 0 73t-18.5 37t-27 13.5t-25.5 2.5v81q11 0 25.5 2t27 13t18.5 37t0 73q-14 98 -4.5 154t55 74.5t140.5 4.5v-77q-55 12 -81.5 5.5t-34 -28t-4 -55.5t9.5 -76q8 -48 4.5 -82t-24.5 -55t-68 -32q47 -11 68.5 -31.5 t24.5 -54t-5 -81.5q-6 -43 -9.5 -77t4 -55.5t34 -28t81.5 5.5v-77z" glyph-name="braceleft" horiz-adv-x="320" unicode="{"/>
<glyph d="M60 -151v752h84v-752h-84z" glyph-name="bar" horiz-adv-x="204" unicode="|"/>
<glyph d="M38 -196v77q54 -12 81 -5.5t34.5 28t3.5 55.5t-9 77q-8 48 -5 81.5t24.5 54t68.5 31.5q-47 11 -68.5 32t-24.5 55t5 82q5 42 9 76t-3.5 55.5t-34.5 28t-81 -5.5v77q77 6 120.5 -2t62 -34.5t18.5 -74.5t-10 -122q-6 -47 -0.5 -73t18.5 -37t27.5 -13t25.5 -2v-81 q-11 0 -25.5 -2.5t-27.5 -13.5t-18.5 -37t0.5 -73q11 -74 10.5 -122.5t-18.5 -75t-62 -34.5t-121 -2z" glyph-name="braceright" horiz-adv-x="333" unicode="}"/>
<glyph d="M225 195q-26 0 -40.5 10t-24 23t-18.5 23t-24 10q-19 0 -23 -16.5t-3 -41.5h-52q0 18 3 43.5t18.5 44.5t52.5 19q25 0 39.5 -10t24 -23t19 -22.5t24.5 -9.5q19 0 22.5 17t3.5 42h51q1 -22 -3 -47.5t-20 -43.5t-50 -18z" glyph-name="asciitilde" horiz-adv-x="338" unicode="~"/>
<glyph glyph-name="uni00A0" horiz-adv-x="228" unicode=" "/>
<glyph d="M98 373q27 0 36.5 -14.5t9.5 -35.5q0 -19 -9.5 -33t-36.5 -14q-29 0 -38.5 14t-9.5 33q0 21 9.5 35.5t38.5 14.5zM67 211l9 -2t21 -2q15 0 22.5 2l7.5 2q6 -121 12.5 -200.5t7 -125.5t-11 -65t-38.5 -19q-28 0 -39 19t-11 64.5t6.5 125t13.5 201.5z" glyph-name="exclamdown" horiz-adv-x="192" unicode="¡"/>
<glyph d="M186 -94l4 87q-73 10 -120 62t-47 141q2 87 48 143t119 68l-4 87h83l-5 -86q70 -10 109 -52t49 -96l-76 -12q-10 44 -38 67t-79 23q-60 0 -92 -38t-32 -98q0 -64 31 -101.5t92 -37.5q98 0 118 93l76 -12q-10 -56 -49.5 -98.5t-108.5 -52.5l5 -87h-83z" glyph-name="cent" horiz-adv-x="457" unicode="¢"/>
<glyph d="M104 -13l-39 62q41 32 66 72t13 96l-102 1v62h78q-26 54 -26.5 106t23 94t69.5 67.5t113 25.5q71 0 117.5 -26t70 -70t25.5 -99l-79 -11q-4 20 -13 43.5t-26 45t-44 35t-66 12.5q-50 -2 -81 -31t-34.5 -77.5t27.5 -109.5q1 -3 2 -5h209v-63h-187q10 -50 -6.5 -82.5 t-41.5 -61.5q34 16 67 15.5t64 -9t59.5 -16.5t54 -7t48.5 19q21 17 24.5 45t-7.5 59l80 15q21 -82 -4 -127.5t-75 -54.5q-39 -19 -75 -18t-71 10.5t-70.5 17.5t-74.5 3t-82 -34q-1 -1 -2.5 -2t-3.5 -2z" glyph-name="sterling" horiz-adv-x="641" unicode="£"/>
<glyph d="M444 4h-34l-41 59q-39 -27 -93 -27q-58 0 -96 28l-42 -60h-31l54 77q-41 46 -41 126q0 90 50 135l-47 65h34l35 -50q33 20 84 20q48 0 82 -19l34 49h35l-47 -65q51 -46 51 -135q0 -79 -41 -126zM276 57q24 0 44.5 6.5t36.5 16.5q3 3 6.5 6t6.5 6l-10 -10l4 4l8.5 8.5 l4.5 4.5q32 40 32 108q0 78 -41 118q-8 8 -22 15q-31 16 -70 16q-42 0 -72 -16q-1 -1 -11 -8t-10 -8q-41 -38 -41 -117q0 -33 12 -67.5t39 -58.5q15 -11 35.5 -17.5t47.5 -6.5z" glyph-name="currency" horiz-adv-x="550" unicode="¤"/>
<glyph d="M87 98v50h117v46h-117v49h95l-169 320h93l141 -286l142 286h92l-173 -320h99v-47l-120 -1v-47h120v-50h-120v-98h-83v98h-117z" glyph-name="yen" horiz-adv-x="495" unicode="¥"/>
<glyph d="M60 294v307h84v-307h-84zM60 -151v307h84v-307h-84z" glyph-name="brokenbar" horiz-adv-x="204" unicode="¦"/>
<glyph d="M418 223v-2q23 -15 39 -40t15 -60q-3 -56 -51.5 -88t-116.5 -32q-47 0 -90.5 16t-71.5 50t-30 86h31q0 -2 1.5 -15t9 -31t24.5 -35.5t48 -29t80 -11.5q45 0 72 11t40.5 27t18 31t4.5 22q1 38 -21 59.5t-58 33.5t-76.5 21.5t-76.5 24t-58 40t-20 70.5q1 28 20.5 48.5 t47.5 31.5v1q-31 17 -50 42.5t-18 61.5q2 36 25 61.5t61.5 39.5t84.5 14q47 0 84.5 -16.5t59.5 -48.5t20 -81h-30q1 36 -13 59t-36 35.5t-45.5 17.5t-41.5 5q-59 0 -97.5 -25t-40.5 -63q0 -37 22.5 -58t58 -32.5t76 -20.5t76 -23.5t57.5 -41t20 -72.5q-1 -28 -16 -48 t-38 -35zM162 369q0 -35 17.5 -55.5t47.5 -32t65.5 -19.5t69.5 -18q11 -2 15 -3t6 -2q8 -2 12 -0.5t6 2.5q26 17 33 37t7 29q1 33 -16.5 54t-47 34t-64.5 21.5t-69 17.5q-14 3 -21.5 4.5t-20.5 -6.5q-39 -26 -40 -63z" glyph-name="section" horiz-adv-x="600" unicode="§"/>
<glyph d="M100 677q-33 0 -44 16t-11 39q0 21 11 37t44 16t43.5 -16t10.5 -37q0 -23 -10.5 -39t-43.5 -16zM269 677q-33 0 -44 16t-11 39q0 21 11 37t44 16t43.5 -16t10.5 -37q0 -23 -10.5 -39t-43.5 -16z" glyph-name="dieresis" horiz-adv-x="600" unicode="¨"/>
<glyph d="M328 -10q-61 0 -114 22.5t-93.5 63t-63 93.5t-22.5 114q0 59 22.5 111.5t63 92.5t93.5 63t114 23q59 0 111.5 -23t92.5 -63t63 -92.5t23 -111.5q0 -61 -23 -114t-63 -93.5t-92.5 -63t-111.5 -22.5zM328 39q70 0 124.5 31t86 86t31.5 126q0 70 -31.5 124.5t-86 86 t-124.5 31.5q-71 0 -126 -31.5t-86.5 -86t-31.5 -124.5q0 -71 31.5 -126t86.5 -86t126 -31zM328 115q-68 0 -114.5 42t-46.5 124q1 80 47 124t116 44q65 0 103.5 -35.5t47.5 -87.5l-54 -9q-8 39 -30.5 60t-66.5 21q-52 0 -79.5 -30.5t-27.5 -82.5q0 -57 27 -88t79 -31 q82 0 99 87l55 -14q-10 -53 -48.5 -88.5t-106.5 -35.5z" glyph-name="copyright" horiz-adv-x="627" unicode="©"/>
<glyph d="M127 404q-54 0 -78 37.5t-24 96.5q0 60 24 98.5t78 38.5q30 0 48 -10.5t27.5 -23.5t13.5 -22l1 54h58v-263h-48l-9 46h-2q-5 -14 -25.5 -33t-63.5 -19zM150 452q37 0 52 23.5t15 62.5q0 40 -15.5 63.5t-51.5 23.5q-40 0 -55.5 -25.5t-15.5 -61.5q0 -37 16 -61.5t55 -24.5 z" glyph-name="ordfeminine" horiz-adv-x="297" unicode="ª"/>
<glyph d="M317 519v-67l-221 -157l221 -162v-65l-295 227zM487 519v-72l-221 -152l221 -157v-70l-295 227z" glyph-name="guillemotleft" horiz-adv-x="530" unicode="«"/>
<glyph d="M40 196v56h222v-139h-57v83h-165z" glyph-name="logicalnot" horiz-adv-x="317" unicode="¬"/>
<glyph d="M29 195v60h222v-60h-222z" glyph-name="uni00AD" horiz-adv-x="280" unicode="­"/>
<glyph d="M203 229q-48 0 -87 23t-62.5 62t-23.5 86q0 48 23.5 87t62.5 62t87 23q47 0 85.5 -23t61.5 -62t23 -87q0 -47 -23 -86t-61.5 -62t-85.5 -23zM203 261q41 0 72 19t48.5 50.5t17.5 69.5q0 39 -17.5 70.5t-48.5 50.5t-72 19t-73 -19t-49.5 -50.5t-17.5 -70.5 q0 -38 17.5 -69.5t49.5 -50.5t73 -19zM138 317v175h63q35 0 54 -11.5t19 -40.5q0 -21 -11.5 -35t-35.5 -14q19 0 25.5 -9.5t7.5 -21.5t5 -19t17 -1v-19q-8 -6 -19.5 -7t-20.5 7t-9 29q0 17 -3.5 26t-16.5 11.5t-44 1.5v-72h-31zM169 412h32q22 0 33 4t11 21q0 20 -13.5 24.5 t-37.5 4.5h-25v-54z" glyph-name="registered" horiz-adv-x="408" unicode="®"/>
<glyph d="M40 730v60h262v-60h-262z" glyph-name="macron" horiz-adv-x="342" unicode="¯"/>
<glyph d="M135 363q-55 0 -80 28.5t-25 75.5q0 48 24.5 77t80.5 29q54 0 80.5 -29t26.5 -77q0 -45 -26.5 -74.5t-80.5 -29.5zM134 417q30 0 41.5 15t11.5 37t-11.5 38t-41.5 16q-29 0 -41 -16.5t-12 -37.5q0 -23 13 -37.5t40 -14.5z" glyph-name="degree" horiz-adv-x="296" unicode="°"/>
<glyph d="M129 143v77h-89v51h89v78h51v-78h82v-51h-82v-77h-51zM40 46v51h222v-51h-222z" glyph-name="plusminus" horiz-adv-x="317" unicode="±"/>
<glyph d="M15 409v40l19 10t45 27.5t50 39t36 44.5q16 33 0.5 54.5t-46.5 21.5q-26 0 -42 -17.5t-12 -53.5l-44 6q-5 49 25 77t78 28q35 0 60 -17t33 -44.5t-8 -59.5q-12 -24 -33.5 -44t-45.5 -35.5t-43 -24.5t-24 -11h162v-41h-210z" glyph-name="uni00B2" horiz-adv-x="240" unicode="²"/>
<glyph d="M126 399q-47 0 -79 24.5t-32 73.5l45 7q1 -32 19.5 -48t47.5 -16q24 0 40.5 13t16.5 34q0 23 -18 32t-35 9h-32v25h33q20 0 34 8.5t14 27.5q0 22 -15.5 35t-41.5 13q-31 0 -45.5 -18.5t-14.5 -34.5l-42 6q0 10 9 30.5t31 38t61 17.5q47 0 73.5 -20.5t26.5 -55.5 q0 -23 -13 -39.5t-37 -20.5q24 -4 40 -21.5t16 -41.5q0 -37 -29 -57.5t-73 -20.5z" glyph-name="uni00B3" horiz-adv-x="243" unicode="³"/>
<glyph d="M75 632h-39v12l48 101h72v-16z" glyph-name="acute" horiz-adv-x="600" unicode="´"/>
<glyph d="M67 -155v564h82v-211q0 -36 7 -66.5t28.5 -48.5t65.5 -18q41 0 64 18.5t32.5 48.5t11.5 62v215h85v-408h-71l-9 67h-3q-12 -27 -36 -52.5t-72 -25.5q-40 0 -63.5 13t-37.5 35h-2v-193h-82z" glyph-name="uni00B5" horiz-adv-x="515" unicode="µ"/>
<glyph d="M236 -91v403h-19q-55 1 -101 19.5t-73 60t-27 113.5q0 70 27 111.5t72 61t100 20.5h92v0h193v-70h-63v-719h-71l-1 719h-58v-719h-71z" glyph-name="paragraph" horiz-adv-x="516" unicode="¶"/>
<glyph d="M110 193q-39 0 -52 19t-13 46q0 25 13 44t52 19t51.5 -19t12.5 -44q0 -27 -12.5 -46t-51.5 -19z" glyph-name="periodcentered" horiz-adv-x="229" unicode="·"/>
<glyph d="M35 -118l27 41q12 -12 33.5 -19.5t44 -8.5t37.5 6.5t15 25.5q-1 16 -16 22t-35 2.5t-35 -16.5l-36 21l41 87l41 -16l-39 -61q14 12 36.5 17t45.5 1.5t38.5 -18t15.5 -41.5q0 -31 -21.5 -50.5t-54.5 -26t-70 1.5t-68 32z" glyph-name="cedilla" horiz-adv-x="284" unicode="¸"/>
<glyph d="M30 408v42h45v185q-5 -24 -18.5 -35.5t-25.5 -15.5t-16 -4v52q4 -1 19.5 1.5t29.5 14t16 37.5h42v-235h38v-42h-130z" glyph-name="uni00B9" horiz-adv-x="175" unicode="¹"/>
<glyph d="M154 410q-70 0 -104.5 40t-34.5 104q0 62 34.5 102.5t104.5 40.5q67 0 102 -39.5t35 -103.5q0 -62 -33.5 -103t-103.5 -41zM154 458q32 0 50 14.5t25 37t7 45.5t-7 45.5t-25 37.5t-50 15q-34 0 -52 -15t-24.5 -37.5t-6.5 -45.5t6.5 -45.5t24.5 -37t52 -14.5z" glyph-name="ordmasculine" horiz-adv-x="306" unicode="º"/>
<glyph d="M185 519l295 -224l-295 -227v65l221 162l-221 157v67zM15 519l295 -224l-295 -227v70l221 157l-221 152v72z" glyph-name="guillemotright" horiz-adv-x="495" unicode="»"/>
<glyph d="M38 290v42h45v185q-5 -23 -18.5 -35t-25.5 -16t-16 -4v53q4 -1 19.5 1t29.5 13.5t16 37.5h42v-235h38v-42h-130zM166 0l-58 41l228 258l191 264l57 -40l-219 -247zM434 55v41q34 15 58 46t37 67t14 68h52q0 -48 -30.5 -98t-81.5 -83h92v42h48v-42h35v-41h-35v-55h-48v55 h-141z" glyph-name="onequarter" horiz-adv-x="695" unicode="¼"/>
<glyph d="M38 290v42h45v185q-5 -23 -18.5 -35t-25.5 -16t-16 -4v53q4 -1 19.5 1t29.5 13.5t16 37.5h42v-235h38v-42h-130zM166 0l-58 41l228 258l191 264l57 -40l-219 -247zM475 0v40l19 10t45 27.5t50 39t36 44.5q16 33 0.5 54.5t-46.5 21.5q-26 0 -42 -17.5t-12 -53.5l-44 6 q-5 49 25 77t78 28q35 0 60 -17t33 -44.5t-8 -59.5q-12 -24 -33.5 -44t-45.5 -35.5t-43 -24.5t-24 -11h162v-41h-210z" glyph-name="onehalf" horiz-adv-x="722" unicode="½"/>
<glyph d="M134 296q-47 0 -79 24.5t-32 73.5l45 7q1 -32 19.5 -48t47.5 -16q24 0 40.5 13t16.5 34q0 23 -18 32t-35 9h-32v25h33q20 0 34 8.5t14 27.5q0 22 -15.5 35t-41.5 13q-31 0 -45.5 -18.5t-14.5 -34.5l-42 6q0 10 9 30.5t31 38t61 17.5q47 0 73.5 -20.5t26.5 -55.5 q0 -23 -13 -39.5t-37 -20.5q24 -4 40 -21.5t16 -41.5q0 -37 -29 -57.5t-73 -20.5zM166 0l-58 41l228 258l191 264l57 -40l-219 -247zM434 55v41q34 15 58 46t37 67t14 68h52q0 -48 -30.5 -98t-81.5 -83h92v42h48v-42h35v-41h-35v-55h-48v55h-141z" glyph-name="threequarters" horiz-adv-x="695" unicode="¾"/>
<glyph d="M240 379q29 0 39 -15.5t10 -36.5t-10 -35.5t-39 -14.5t-39 14.5t-10 35.5q0 22 10 37t39 15zM203 215h74q0 -33 -15.5 -59.5t-38 -48.5t-45 -43.5t-38 -45t-16.5 -52.5q-2 -41 24.5 -66.5t73.5 -25.5q43 0 65.5 19.5t31 48t8.5 54.5h79q5 -48 -11.5 -93t-58 -73.5 t-109.5 -28.5q-52 0 -94 19t-67 53.5t-25 82.5q0 40 16 68t40 49.5t48 42t40.5 44t17.5 55.5z" glyph-name="questiondown" horiz-adv-x="439" unicode="¿"/>
<glyph d="M19 0l189 563h137l193 -563h-89l-54 168h-234l-54 -168h-88zM278 528l-95 -294h190zM254 610l-81 97v16h72l48 -101v-12h-39z" glyph-name="Agrave" unicode="À"/>
<glyph d="M19 0l189 563h137l193 -563h-89l-54 168h-234l-54 -168h-88zM278 528l-95 -294h190zM295 610h-39v12l48 101h72v-16z" glyph-name="Aacute" unicode="Á"/>
<glyph d="M19 0l189 563h137l193 -563h-89l-54 168h-234l-54 -168h-88zM278 528l-95 -294h190zM147 620v8l114 106h36l113 -106v-8h-75l-54 59h-4l-52 -59h-78z" glyph-name="Acircumflex" unicode="Â"/>
<glyph d="M19 0l189 563h137l193 -563h-89l-54 168h-234l-54 -168h-88zM278 528l-95 -294h190zM332 620q-24 0 -38.5 8.5t-24 19.5t-18.5 19.5t-22 8.5q-17 0 -20.5 -14t-2.5 -39h-52q0 18 3 42t17.5 42t49.5 18q24 0 38.5 -8.5t24 -19.5t19 -19t22.5 -8q17 0 20 14t3 40h51 q1 -24 -3 -48t-19 -40t-48 -16z" glyph-name="Atilde" unicode="Ã"/>
<glyph d="M19 0l189 563h137l193 -563h-89l-54 168h-234l-54 -168h-88zM278 528l-95 -294h190zM195 623q-33 0 -44 16t-11 39q0 21 11 37t44 16t43.5 -16t10.5 -37q0 -23 -10.5 -39t-43.5 -16zM364 623q-33 0 -44 16t-11 39q0 21 11 37t44 16t43.5 -16t10.5 -37q0 -23 -10.5 -39 t-43.5 -16z" glyph-name="Adieresis" unicode="Ä"/>
<glyph d="M19 0l189 563h137l193 -563h-89l-54 168h-234l-54 -168h-88zM278 528l-95 -294h190zM272 607q-47 0 -71 25.5t-24 67.5q0 44 23.5 70t71.5 26q47 0 72 -26t25 -70q0 -40 -25 -66.5t-72 -26.5zM271 656q23 0 35 13.5t12 32.5q0 20 -12 33.5t-35 13.5q-22 0 -34 -14 t-12 -33q0 -20 12.5 -33t33.5 -13z" glyph-name="Aring" unicode="Å"/>
<glyph d="M19 0l334 563h448v-72h-307v-171h240v-69h-240v-183h317v-68h-399v168h-207l-97 -168h-89zM243 234h169v290z" glyph-name="AE" horiz-adv-x="847" unicode="Æ"/>
<glyph d="M300 -10q-78 0 -141.5 32.5t-100 97t-36.5 160.5q1 95 37 160.5t99.5 99t145.5 33.5q109 0 176 -58t83 -152h-86q-8 48 -34.5 77t-63 42t-75.5 13q-95 0 -147 -54.5t-52 -155.5q0 -106 51 -161.5t145 -55.5q65 0 116 31.5t63 102.5h87q-17 -94 -84 -153t-183 -59z M200 -134l27 41q12 -12 33.5 -19.5t44 -8.5t37.5 6.5t15 25.5q-1 16 -16 22t-35 2.5t-35 -16.5l-36 21l41 87l41 -16l-39 -61q14 12 36.5 17t45.5 1.5t38.5 -18t15.5 -41.5q0 -31 -21.5 -50.5t-54.5 -26t-70 1.5t-68 32z" glyph-name="Ccedilla" horiz-adv-x="599" unicode="Ç"/>
<glyph d="M137 68h318v-68h-400v563h390v-72h-308v-171h240v-69h-240v-183zM213 610l-81 97v16h72l48 -101v-12h-39z" glyph-name="Egrave" horiz-adv-x="490" unicode="È"/>
<glyph d="M137 68h318v-68h-400v563h390v-72h-308v-171h240v-69h-240v-183zM251 610h-39v12l48 101h72v-16z" glyph-name="Eacute" horiz-adv-x="490" unicode="É"/>
<glyph d="M137 68h318v-68h-400v563h390v-72h-308v-171h240v-69h-240v-183zM115 628v8l114 106h36l113 -106v-8h-75l-54 59h-4l-52 -59h-78z" glyph-name="Ecircumflex" horiz-adv-x="490" unicode="Ê"/>
<glyph d="M137 68h318v-68h-400v563h390v-72h-308v-171h240v-69h-240v-183zM169 623q-33 0 -44 16t-11 39q0 21 11 37t44 16t43.5 -16t10.5 -37q0 -23 -10.5 -39t-43.5 -16zM338 623q-33 0 -44 16t-11 39q0 21 11 37t44 16t43.5 -16t10.5 -37q0 -23 -10.5 -39t-43.5 -16z" glyph-name="Edieresis" horiz-adv-x="490" unicode="Ë"/>
<glyph d="M294 72v-72h-235v72h77v419h-77v72h235v-72h-76v-419h76zM144 610l-81 97v16h72l48 -101v-12h-39z" glyph-name="Igrave" horiz-adv-x="360" unicode="Ì"/>
<glyph d="M294 72v-72h-235v72h77v419h-77v72h235v-72h-76v-419h76zM187 610h-39v12l48 101h72v-16z" glyph-name="Iacute" horiz-adv-x="360" unicode="Í"/>
<glyph d="M294 72v-72h-235v72h77v419h-77v72h235v-72h-76v-419h76zM44 628v8l114 106h36l113 -106v-8h-75l-54 59h-4l-52 -59h-78z" glyph-name="Icircumflex" horiz-adv-x="360" unicode="Î"/>
<glyph d="M294 72v-72h-235v72h77v419h-77v72h235v-72h-76v-419h76zM93 623q-33 0 -44 16t-11 39q0 21 11 37t44 16t43.5 -16t10.5 -37q0 -23 -10.5 -39t-43.5 -16zM262 623q-33 0 -44 16t-11 39q0 21 11 37t44 16t43.5 -16t10.5 -37q0 -23 -10.5 -39t-43.5 -16z" glyph-name="Idieresis" horiz-adv-x="360" unicode="Ï"/>
<glyph d="M65 0v258h-65v57h65v248h152q104 0 181.5 -31.5t120.5 -93.5t43 -156q0 -111 -43 -172.5t-120.5 -85.5t-181.5 -24h-152zM148 70h91q71 0 124 16.5t82 62.5t29 134q0 105 -64 156.5t-171 51.5h-91v-176h156v-57h-156v-188z" glyph-name="Eth" horiz-adv-x="600" unicode="Ð"/>
<glyph d="M451 563h85v-563h-157l-237 526h-2v-526h-85v563h147l247 -526h2v526zM346 620q-24 0 -38.5 8.5t-24 19.5t-18.5 19.5t-22 8.5q-17 0 -20.5 -14t-2.5 -39h-52q0 18 3 42t17.5 42t49.5 18q24 0 38.5 -8.5t24 -19.5t19 -19t22.5 -8q17 0 20 14t3 40h51q1 -24 -3 -48 t-19 -40t-48 -16z" glyph-name="Ntilde" horiz-adv-x="594" unicode="Ñ"/>
<glyph d="M297 -14q-135 0 -206 79.5t-71 214.5q0 89 30.5 154.5t92 102t154.5 36.5q135 0 205.5 -79.5t70.5 -213.5q0 -87 -31.5 -153.5t-93 -103.5t-151.5 -37zM296 66q97 0 146 60t49 154t-48.5 154.5t-146.5 60.5q-96 0 -145.5 -58t-49.5 -157q0 -62 21 -110.5t64.5 -76 t109.5 -27.5zM273 610l-81 97v16h72l48 -101v-12h-39z" glyph-name="Ograve" horiz-adv-x="608" unicode="Ò"/>
<glyph d="M297 -14q-135 0 -206 79.5t-71 214.5q0 89 30.5 154.5t92 102t154.5 36.5q135 0 205.5 -79.5t70.5 -213.5q0 -87 -31.5 -153.5t-93 -103.5t-151.5 -37zM296 66q97 0 146 60t49 154t-48.5 154.5t-146.5 60.5q-96 0 -145.5 -58t-49.5 -157q0 -62 21 -110.5t64.5 -76 t109.5 -27.5zM320 610h-39v12l48 101h72v-16z" glyph-name="Oacute" horiz-adv-x="608" unicode="Ó"/>
<glyph d="M297 -14q-135 0 -206 79.5t-71 214.5q0 89 30.5 154.5t92 102t154.5 36.5q135 0 205.5 -79.5t70.5 -213.5q0 -87 -31.5 -153.5t-93 -103.5t-151.5 -37zM296 66q97 0 146 60t49 154t-48.5 154.5t-146.5 60.5q-96 0 -145.5 -58t-49.5 -157q0 -62 21 -110.5t64.5 -76 t109.5 -27.5zM167 628v8l114 106h36l113 -106v-8h-75l-54 59h-4l-52 -59h-78z" glyph-name="Ocircumflex" horiz-adv-x="608" unicode="Ô"/>
<glyph d="M297 -14q-135 0 -206 79.5t-71 214.5q0 89 30.5 154.5t92 102t154.5 36.5q135 0 205.5 -79.5t70.5 -213.5q0 -87 -31.5 -153.5t-93 -103.5t-151.5 -37zM296 66q97 0 146 60t49 154t-48.5 154.5t-146.5 60.5q-96 0 -145.5 -58t-49.5 -157q0 -62 21 -110.5t64.5 -76 t109.5 -27.5zM352 623q-24 0 -38.5 8.5t-24 19.5t-18.5 19.5t-22 8.5q-17 0 -20.5 -14t-2.5 -39h-52q0 18 3 42t17.5 42t49.5 18q24 0 38.5 -8.5t24 -19.5t19 -19t22.5 -8q17 0 20 14t3 40h51q1 -24 -3 -48t-19 -40t-48 -16z" glyph-name="Otilde" horiz-adv-x="608" unicode="Õ"/>
<glyph d="M297 -14q-135 0 -206 79.5t-71 214.5q0 89 30.5 154.5t92 102t154.5 36.5q135 0 205.5 -79.5t70.5 -213.5q0 -87 -31.5 -153.5t-93 -103.5t-151.5 -37zM296 66q97 0 146 60t49 154t-48.5 154.5t-146.5 60.5q-96 0 -145.5 -58t-49.5 -157q0 -62 21 -110.5t64.5 -76 t109.5 -27.5zM220 623q-33 0 -44 16t-11 39q0 21 11 37t44 16t43.5 -16t10.5 -37q0 -23 -10.5 -39t-43.5 -16zM389 623q-33 0 -44 16t-11 39q0 21 11 37t44 16t43.5 -16t10.5 -37q0 -23 -10.5 -39t-43.5 -16z" glyph-name="Odieresis" horiz-adv-x="608" unicode="Ö"/>
<glyph d="M281 300l-81 -82l81 -82l-40 -42l-83 83l-81 -82l-42 42l82 81l-81 81l41 42l81 -81l82 81z" glyph-name="multiply" horiz-adv-x="316" unicode="×"/>
<glyph d="M86 -24l40 58q-52 37 -79 100t-27 146q0 89 30.5 154.5t92 102t153.5 36.5q52 0 94.5 -12t75.5 -35l46 66l25 -14l-49 -70q85 -78 85 -228q0 -87 -31.5 -153.5t-93 -103.5t-151.5 -37q-85 0 -146 33l-40 -58zM101 280q0 -57 18 -103t55 -74l245 354q-24 18 -54.5 28 t-68.5 10q-96 0 -145.5 -58t-49.5 -157zM296 66q97 0 146 60t49 154q0 48 -12.5 88.5t-38.5 69.5l-242 -351q42 -21 98 -21z" glyph-name="Oslash" horiz-adv-x="600" unicode="Ø"/>
<glyph d="M292 -14q-116 0 -177.5 66.5t-61.5 187.5v323h87v-322q0 -65 21 -103.5t55.5 -55.5t75.5 -17q45 0 79.5 16.5t54 55t19.5 104.5v322h87v-323q0 -123 -60.5 -188.5t-179.5 -65.5zM264 610l-81 97v16h72l48 -101v-12h-39z" glyph-name="Ugrave" horiz-adv-x="586" unicode="Ù"/>
<glyph d="M292 -14q-116 0 -177.5 66.5t-61.5 187.5v323h87v-322q0 -65 21 -103.5t55.5 -55.5t75.5 -17q45 0 79.5 16.5t54 55t19.5 104.5v322h87v-323q0 -123 -60.5 -188.5t-179.5 -65.5zM308 610h-39v12l48 101h72v-16z" glyph-name="Uacute" horiz-adv-x="586" unicode="Ú"/>
<glyph d="M292 -14q-116 0 -177.5 66.5t-61.5 187.5v323h87v-322q0 -65 21 -103.5t55.5 -55.5t75.5 -17q45 0 79.5 16.5t54 55t19.5 104.5v322h87v-323q0 -123 -60.5 -188.5t-179.5 -65.5zM162 620v8l114 106h36l113 -106v-8h-75l-54 59h-4l-52 -59h-78z" glyph-name="Ucircumflex" horiz-adv-x="586" unicode="Û"/>
<glyph d="M292 -14q-116 0 -177.5 66.5t-61.5 187.5v323h87v-322q0 -65 21 -103.5t55.5 -55.5t75.5 -17q45 0 79.5 16.5t54 55t19.5 104.5v322h87v-323q0 -123 -60.5 -188.5t-179.5 -65.5zM211 623q-33 0 -44 16t-11 39q0 21 11 37t44 16t43.5 -16t10.5 -37q0 -23 -10.5 -39 t-43.5 -16zM380 623q-33 0 -44 16t-11 39q0 21 11 37t44 16t43.5 -16t10.5 -37q0 -23 -10.5 -39t-43.5 -16z" glyph-name="Udieresis" horiz-adv-x="586" unicode="Ü"/>
<glyph d="M175 0v202l-192 361h93l142 -286l141 286h93l-194 -360v-203h-83zM230 610h-39v12l48 101h72v-16z" glyph-name="Yacute" horiz-adv-x="439" unicode="Ý"/>
<glyph d="M143 0h-83v563h83v-102h131q93 0 143.5 -46t50.5 -138q0 -83 -52 -129t-142 -46h-131v-102zM263 392h-120v-227h120q60 0 95 28t35 85q0 59 -34 86.5t-96 27.5z" glyph-name="Thorn" horiz-adv-x="487" unicode="Þ"/>
<glyph d="M352 -10q-59 0 -96.5 20t-56.5 52t-24 68h72q0 -1 3.5 -11t13 -23t28.5 -23t50 -10q50 0 80 28t30 66q-1 32 -20.5 53t-48.5 34.5t-58.5 25.5t-49 26.5t-19.5 37.5q0 20 12 31t29.5 18.5t35 16t30 22.5t12.5 39q0 15 -18 22t-43.5 9.5t-47.5 2.5h-128v-495h-83v563h211 q24 0 55.5 -1t61.5 -7.5t50 -24.5t20 -52q0 -31 -13.5 -50t-33 -30.5t-39 -20t-32.5 -17.5t-13 -24q-1 -18 20.5 -28.5t53 -21.5t63 -27t53 -43.5t21.5 -72.5q0 -46 -25.5 -80.5t-66.5 -53.5t-89 -19z" glyph-name="germandbls" horiz-adv-x="555" unicode="ß"/>
<glyph d="M180 -9q-57 0 -92 26.5t-51.5 74t-16.5 108.5q0 93 38 152.5t122 59.5q45 0 73 -16t43.5 -36t21.5 -35h2v84h85v-409h-71l-14 73h-2q-6 -15 -22 -34.5t-44 -33.5t-72 -14zM213 62q59 0 82.5 38t23.5 99q0 64 -24.5 101t-81.5 37q-42 0 -66 -18.5t-34.5 -49.5t-10.5 -69 q0 -59 25 -98.5t86 -39.5zM204 453l-81 97v16h72l48 -101v-12h-39z" glyph-name="agrave" horiz-adv-x="440" unicode="à"/>
<glyph d="M180 -9q-57 0 -92 26.5t-51.5 74t-16.5 108.5q0 93 38 152.5t122 59.5q45 0 73 -16t43.5 -36t21.5 -35h2v84h85v-409h-71l-14 73h-2q-6 -15 -22 -34.5t-44 -33.5t-72 -14zM213 62q59 0 82.5 38t23.5 99q0 64 -24.5 101t-81.5 37q-42 0 -66 -18.5t-34.5 -49.5t-10.5 -69 q0 -59 25 -98.5t86 -39.5zM240 453h-39v12l48 101h72v-16z" glyph-name="aacute" horiz-adv-x="440" unicode="á"/>
<glyph d="M180 -9q-57 0 -92 26.5t-51.5 74t-16.5 108.5q0 93 38 152.5t122 59.5q45 0 73 -16t43.5 -36t21.5 -35h2v84h85v-409h-71l-14 73h-2q-6 -15 -22 -34.5t-44 -33.5t-72 -14zM213 62q59 0 82.5 38t23.5 99q0 64 -24.5 101t-81.5 37q-42 0 -66 -18.5t-34.5 -49.5t-10.5 -69 q0 -59 25 -98.5t86 -39.5zM85 463v8l114 106h36l113 -106v-8h-75l-54 59h-4l-52 -59h-78z" glyph-name="acircumflex" horiz-adv-x="440" unicode="â"/>
<glyph d="M180 -9q-57 0 -92 26.5t-51.5 74t-16.5 108.5q0 93 38 152.5t122 59.5q45 0 73 -16t43.5 -36t21.5 -35h2v84h85v-409h-71l-14 73h-2q-6 -15 -22 -34.5t-44 -33.5t-72 -14zM213 62q59 0 82.5 38t23.5 99q0 64 -24.5 101t-81.5 37q-42 0 -66 -18.5t-34.5 -49.5t-10.5 -69 q0 -59 25 -98.5t86 -39.5zM270 471q-24 0 -38.5 8.5t-24 19.5t-18.5 19.5t-22 8.5q-17 0 -20.5 -14t-2.5 -39h-52q0 18 3 42t17.5 42t49.5 18q24 0 38.5 -8.5t24 -19.5t19 -19t22.5 -8q17 0 20 14t3 40h51q1 -24 -3 -48t-19 -40t-48 -16z" glyph-name="atilde" horiz-adv-x="440" unicode="ã"/>
<glyph d="M148 456q-33 0 -44 16.5t-11 38.5q0 21 11 37.5t44 16.5q32 0 42.5 -16.5t10.5 -37.5q0 -22 -10.5 -38.5t-42.5 -16.5zM317 456q-33 0 -44 16.5t-11 38.5q0 21 11 37.5t44 16.5q32 0 42.5 -16.5t10.5 -37.5q0 -22 -10.5 -38.5t-42.5 -16.5zM201 -9q-61 0 -101 29 t-60 77.5t-20 106.5q0 59 20.5 107.5t60.5 77t100 28.5q49 0 84.5 -20.5t57.5 -52.5v65h83v-302q0 -40 17 -49t41 3l3 -48q-2 -1 -18.5 -11.5t-49.5 -10.5q-30 0 -46 12t-22.5 30t-7.5 37q-21 -35 -56 -57t-86 -22zM223 58q62 0 88.5 41.5t26.5 104.5q0 64 -27 106t-88 42 q-44 0 -70.5 -20.5t-37.5 -54t-11 -73.5t11.5 -73.5t37.5 -53t70 -19.5z" glyph-name="adieresis" horiz-adv-x="497" unicode="ä"/>
<glyph d="M180 -9q-57 0 -92 26.5t-51.5 74t-16.5 108.5q0 93 38 152.5t122 59.5q45 0 73 -16t43.5 -36t21.5 -35h2v84h85v-409h-71l-14 73h-2q-6 -15 -22 -34.5t-44 -33.5t-72 -14zM213 62q59 0 82.5 38t23.5 99q0 64 -24.5 101t-81.5 37q-42 0 -66 -18.5t-34.5 -49.5t-10.5 -69 q0 -59 25 -98.5t86 -39.5zM215 469q-47 0 -71 25.5t-24 67.5q0 44 23.5 70t71.5 26q47 0 72 -26t25 -70q0 -40 -25 -66.5t-72 -26.5zM214 518q23 0 35 13.5t12 32.5q0 20 -12 33.5t-35 13.5q-22 0 -34 -14t-12 -33q0 -20 12.5 -33t33.5 -13z" glyph-name="aring" horiz-adv-x="440" unicode="å"/>
<glyph d="M147 0q-56 0 -89.5 29t-33.5 77q0 45 26.5 69.5t67 37.5t83.5 22q44 10 66 17t30 15.5t8 22.5q0 32 -25.5 49.5t-59.5 17.5q-23 0 -44.5 -8.5t-36 -27t-14.5 -48.5h-78q3 52 28.5 84.5t64.5 47.5t81 15q43 0 81 -17t56 -50q23 30 60 49t90 19q51 0 92 -24.5t65.5 -67.5 t27.5 -98v-26h-307q0 -62 31.5 -97t89.5 -35q44 0 71.5 21.5t36.5 58.5l80 -13q-16 -60 -63.5 -100t-124.5 -40q-56 0 -96 20t-64 54t-34 74q-3 -31 -22.5 -65.5t-55.5 -58.5t-88 -24zM387 252h222q0 11 -4.5 29t-15.5 36t-31.5 30.5t-52.5 12.5q-41 0 -66 -18t-37 -43 t-15 -47zM177 62q39 1 67 25.5t43.5 63.5t15.5 84q-10 -9 -32.5 -15.5t-44.5 -12.5q-32 -8 -59 -19t-43.5 -28.5t-15.5 -44.5t21.5 -40.5t47.5 -12.5z" glyph-name="ae" horiz-adv-x="730" unicode="æ"/>
<glyph d="M230 -10q-58 0 -104 24t-72.5 70t-26.5 112q1 65 28 113t72.5 74.5t104.5 26.5q58 0 99.5 -22t65.5 -57.5t29 -75.5h-77q-8 39 -38 61t-76 22q-60 0 -93.5 -38t-33.5 -98q0 -64 32.5 -101.5t93.5 -37.5q43 0 75 22t40 64h77q-5 -42 -29.5 -78.5t-66.5 -58.5t-100 -22z M120 -133l27 41q12 -12 33.5 -19.5t44 -8.5t37.5 6.5t15 25.5q-1 16 -16 22t-35 2.5t-35 -16.5l-36 21l41 87l41 -16l-39 -61q14 12 36.5 17t45.5 1.5t38.5 -18t15.5 -41.5q0 -31 -21.5 -50.5t-54.5 -26t-70 1.5t-68 32z" glyph-name="ccedilla" horiz-adv-x="461" unicode="ç"/>
<glyph d="M226 -10q-69 0 -113 30.5t-65 78.5t-21 101q-1 59 22.5 107t68 76t106.5 28q53 0 95.5 -23.5t67.5 -66t27 -100.5q0 -3 0.5 -11.5t0.5 -14.5h-309q0 -64 31.5 -99.5t87.5 -35.5q42 0 71.5 21.5t36.5 57.5h81q-9 -64 -58 -106.5t-130 -42.5zM109 236h222q-1 11 -6 29 t-16.5 35.5t-32.5 29.5t-54 12q-41 0 -64.5 -17.5t-35 -42t-13.5 -46.5zM204 453l-81 97v16h72l48 -101v-12h-39z" glyph-name="egrave" horiz-adv-x="457" unicode="è"/>
<glyph d="M226 -10q-69 0 -113 30.5t-65 78.5t-21 101q-1 59 22.5 107t68 76t106.5 28q53 0 95.5 -23.5t67.5 -66t27 -100.5q0 -3 0.5 -11.5t0.5 -14.5h-309q0 -64 31.5 -99.5t87.5 -35.5q42 0 71.5 21.5t36.5 57.5h81q-9 -64 -58 -106.5t-130 -42.5zM109 236h222q-1 11 -6 29 t-16.5 35.5t-32.5 29.5t-54 12q-41 0 -64.5 -17.5t-35 -42t-13.5 -46.5zM239 453h-39v12l48 101h72v-16z" glyph-name="eacute" horiz-adv-x="457" unicode="é"/>
<glyph d="M226 -10q-69 0 -113 30.5t-65 78.5t-21 101q-1 59 22.5 107t68 76t106.5 28q53 0 95.5 -23.5t67.5 -66t27 -100.5q0 -3 0.5 -11.5t0.5 -14.5h-309q0 -64 31.5 -99.5t87.5 -35.5q42 0 71.5 21.5t36.5 57.5h81q-9 -64 -58 -106.5t-130 -42.5zM109 236h222q-1 11 -6 29 t-16.5 35.5t-32.5 29.5t-54 12q-41 0 -64.5 -17.5t-35 -42t-13.5 -46.5zM91 459v8l114 106h36l113 -106v-8h-75l-54 59h-4l-52 -59h-78z" glyph-name="ecircumflex" horiz-adv-x="457" unicode="ê"/>
<glyph d="M226 -10q-69 0 -113 30.5t-65 78.5t-21 101q-1 59 22.5 107t68 76t106.5 28q53 0 95.5 -23.5t67.5 -66t27 -100.5q0 -3 0.5 -11.5t0.5 -14.5h-309q0 -64 31.5 -99.5t87.5 -35.5q42 0 71.5 21.5t36.5 57.5h81q-9 -64 -58 -106.5t-130 -42.5zM109 236h222q-1 11 -6 29 t-16.5 35.5t-32.5 29.5t-54 12q-41 0 -64.5 -17.5t-35 -42t-13.5 -46.5zM138 457q-33 0 -44 16t-11 39q0 21 11 37t44 16t43.5 -16t10.5 -37q0 -23 -10.5 -39t-43.5 -16zM307 457q-33 0 -44 16t-11 39q0 21 11 37t44 16t43.5 -16t10.5 -37q0 -23 -10.5 -39t-43.5 -16z" glyph-name="edieresis" horiz-adv-x="457" unicode="ë"/>
<glyph d="M79 457l-82 96v17h73l48 -102v-11h-39zM54 0v409h83v-409h-83z" glyph-name="igrave" horiz-adv-x="191" unicode="ì"/>
<glyph d="M103 459h-39v11l48 102h72v-17zM43 0v411h83v-411h-83z" glyph-name="iacute" horiz-adv-x="185" unicode="í"/>
<glyph d="M-20 459v8l113 106h36l114 -106v-8h-76l-54 59h-4l-52 -59h-77zM70 0v411h83v-411h-83z" glyph-name="icircumflex" horiz-adv-x="225" unicode="î"/>
<glyph d="M35 456q-33 0 -44 16.5t-11 38.5q0 21 11 37.5t44 16.5t43.5 -16.5t10.5 -37.5q0 -22 -10.5 -38.5t-43.5 -16.5zM204 456q-33 0 -44 16.5t-11 38.5q0 21 11 37.5t44 16.5t43.5 -16.5t10.5 -37.5q0 -22 -10.5 -38.5t-43.5 -16.5zM78 0v411h83v-411h-83z" glyph-name="idieresis" horiz-adv-x="243" unicode="ï"/>
<glyph d="M251 -10q-68 0 -114.5 29t-70.5 74.5t-26.5 96.5t16 96.5t58.5 74.5t100 29q49 0 83.5 -19t55.5 -44.5t30.5 -44.5l9.5 -19h1q-9 52 -42.5 102.5t-72.5 90.5l-56 -34l-31 29l56 34q-46 40 -77 52l57 69q30 -13 56 -30.5t48 -39.5l68 41l31 -29l-70 -43q49 -56 75 -125 t28.5 -137.5t-19.5 -126t-70.5 -92t-123.5 -34.5zM394 168q-1 49 -21.5 83t-53 52.5t-68.5 21.5t-67 -10.5t-49.5 -43.5t-14.5 -77q3 -50 28.5 -81.5t63 -45t76 -7t68 33t38.5 74.5z" glyph-name="eth" horiz-adv-x="505" unicode="ð"/>
<glyph d="M38 0v408h71l14 -94h2q1 4 8 19t23 32.5t43 30.5t68 13q54 0 84 -20.5t44 -53t17.5 -68.5t3.5 -67v-200h-81v201q0 38 -8 68.5t-29.5 48t-62.5 17.5q-42 0 -67 -20t-35 -52t-10 -68v-195h-85zM293 471q-24 0 -38.5 8.5t-24 19.5t-18.5 19.5t-22 8.5q-17 0 -20.5 -14 t-2.5 -39h-52q0 18 3 42t17.5 42t49.5 18q24 0 38.5 -8.5t24 -19.5t19 -19t22.5 -8q17 0 20 14t3 40h51q1 -24 -3 -48t-19 -40t-48 -16z" glyph-name="ntilde" horiz-adv-x="456" unicode="ñ"/>
<glyph d="M227 -10q-102 0 -152 59t-50 150q-1 92 50 151t152 60q98 0 149 -58t51 -153q0 -59 -21.5 -106.5t-66 -75t-112.5 -27.5zM227 61q48 0 73.5 21t35.5 53.5t10 66.5t-10 66.5t-35.5 54t-73.5 21.5q-49 0 -75 -21.5t-36 -54t-10 -66.5t10 -66.5t36 -53.5t75 -21zM204 453 l-81 97v16h72l48 -101v-12h-39z" glyph-name="ograve" horiz-adv-x="465" unicode="ò"/>
<glyph d="M227 -10q-102 0 -152 59t-50 150q-1 92 50 151t152 60q98 0 149 -58t51 -153q0 -59 -21.5 -106.5t-66 -75t-112.5 -27.5zM227 61q48 0 73.5 21t35.5 53.5t10 66.5t-10 66.5t-35.5 54t-73.5 21.5q-49 0 -75 -21.5t-36 -54t-10 -66.5t10 -66.5t36 -53.5t75 -21zM239 453 h-39v12l48 101h72v-16z" glyph-name="oacute" horiz-adv-x="465" unicode="ó"/>
<glyph d="M227 -10q-102 0 -152 59t-50 150q-1 92 50 151t152 60q98 0 149 -58t51 -153q0 -59 -21.5 -106.5t-66 -75t-112.5 -27.5zM227 61q48 0 73.5 21t35.5 53.5t10 66.5t-10 66.5t-35.5 54t-73.5 21.5q-49 0 -75 -21.5t-36 -54t-10 -66.5t10 -66.5t36 -53.5t75 -21zM91 459v8 l114 106h36l113 -106v-8h-75l-54 59h-4l-52 -59h-78z" glyph-name="ocircumflex" horiz-adv-x="465" unicode="ô"/>
<glyph d="M227 -10q-102 0 -152 59t-50 150q-1 92 50 151t152 60q98 0 149 -58t51 -153q0 -59 -21.5 -106.5t-66 -75t-112.5 -27.5zM227 61q48 0 73.5 21t35.5 53.5t10 66.5t-10 66.5t-35.5 54t-73.5 21.5q-49 0 -75 -21.5t-36 -54t-10 -66.5t10 -66.5t36 -53.5t75 -21zM279 471 q-24 0 -38.5 8.5t-24 19.5t-18.5 19.5t-22 8.5q-17 0 -20.5 -14t-2.5 -39h-52q0 18 3 42t17.5 42t49.5 18q24 0 38.5 -8.5t24 -19.5t19 -19t22.5 -8q17 0 20 14t3 40h51q1 -24 -3 -48t-19 -40t-48 -16z" glyph-name="otilde" horiz-adv-x="465" unicode="õ"/>
<glyph d="M227 -10q-102 0 -152 59t-50 150q-1 92 50 151t152 60q98 0 149 -58t51 -153q0 -59 -21.5 -106.5t-66 -75t-112.5 -27.5zM227 61q48 0 73.5 21t35.5 53.5t10 66.5t-10 66.5t-35.5 54t-73.5 21.5q-49 0 -75 -21.5t-36 -54t-10 -66.5t10 -66.5t36 -53.5t75 -21zM138 457 q-33 0 -44 16t-11 39q0 21 11 37t44 16t43.5 -16t10.5 -37q0 -23 -10.5 -39t-43.5 -16zM307 457q-33 0 -44 16t-11 39q0 21 11 37t44 16t43.5 -16t10.5 -37q0 -23 -10.5 -39t-43.5 -16z" glyph-name="odieresis" horiz-adv-x="465" unicode="ö"/>
<glyph d="M151 291q-18 0 -27 10.5t-9 27.5q-1 16 8.5 27t27.5 11t27.5 -10.5t9.5 -27.5t-9 -27.5t-28 -10.5zM40 195v60h222v-60h-222zM151 81q-18 0 -27 11t-9 27q-1 17 8.5 27.5t27.5 10.5t27.5 -10.5t9.5 -27.5q0 -16 -9 -27t-28 -11z" glyph-name="divide" horiz-adv-x="317" unicode="÷"/>
<glyph d="M60 -24l34 55q-34 28 -51.5 71t-17.5 97q-1 92 50 151t151 60q54 0 95 -19l35 56l26 -14l-35 -56q39 -27 59.5 -72.5t20.5 -105.5q0 -59 -21.5 -106.5t-66 -75t-112.5 -27.5q-63 0 -108 25l-34 -54zM106 202q0 -28 6.5 -56t23.5 -48l148 234q-24 12 -57 12 q-49 0 -75 -21.5t-36 -54t-10 -66.5zM227 61q48 0 73.5 21t35.5 53.5t10 66.5q0 31 -8 62t-30 51l-149 -237q27 -17 68 -17z" glyph-name="oslash" horiz-adv-x="458" unicode="ø"/>
<glyph d="M185 -10q-52 0 -82.5 19.5t-45 51.5t-19 68t-4.5 70v210h82v-210q0 -36 7 -67t28.5 -49.5t65.5 -18.5q42 0 65 19t32.5 49t10.5 63l1 214h85v-409h-71l-14 85h-2q-4 -13 -19 -35.5t-44 -41t-76 -18.5zM203 457l-81 97v16h72l48 -101v-12h-39z" glyph-name="ugrave" horiz-adv-x="453" unicode="ù"/>
<glyph d="M185 -10q-52 0 -82.5 19.5t-45 51.5t-19 68t-4.5 70v210h82v-210q0 -36 7 -67t28.5 -49.5t65.5 -18.5q42 0 65 19t32.5 49t10.5 63l1 214h85v-409h-71l-14 85h-2q-4 -13 -19 -35.5t-44 -41t-76 -18.5zM240 459h-39v12l48 101h72v-16z" glyph-name="uacute" horiz-adv-x="453" unicode="ú"/>
<glyph d="M185 -10q-52 0 -82.5 19.5t-45 51.5t-19 68t-4.5 70v210h82v-210q0 -36 7 -67t28.5 -49.5t65.5 -18.5q42 0 65 19t32.5 49t10.5 63l1 214h85v-409h-71l-14 85h-2q-4 -13 -19 -35.5t-44 -41t-76 -18.5zM89 459v8l114 106h36l113 -106v-8h-75l-54 59h-4l-52 -59h-78z" glyph-name="ucircumflex" horiz-adv-x="453" unicode="û"/>
<glyph d="M185 -10q-52 0 -82.5 19.5t-45 51.5t-19 68t-4.5 70v210h82v-210q0 -36 7 -67t28.5 -49.5t65.5 -18.5q42 0 65 19t32.5 49t10.5 63l1 214h85v-409h-71l-14 85h-2q-4 -13 -19 -35.5t-44 -41t-76 -18.5zM136 457q-33 0 -44 16t-11 39q0 21 11 37t44 16t43.5 -16t10.5 -37 q0 -23 -10.5 -39t-43.5 -16zM305 457q-33 0 -44 16t-11 39q0 21 11 37t44 16t43.5 -16t10.5 -37q0 -23 -10.5 -39t-43.5 -16z" glyph-name="udieresis" horiz-adv-x="453" unicode="ü"/>
<glyph d="M-2 -186v65h59q21 0 35 9.5t34 50.5l35 77l-160 393h86l115 -307l123 307h87l-210 -479q-22 -51 -40 -76t-40 -32.5t-55 -7.5h-69zM215 459h-39v12l48 101h72v-16z" glyph-name="yacute" horiz-adv-x="424" unicode="ý"/>
<glyph d="M50 -199v762h86v-267q1 4 9 21.5t25 38.5t45 37t70 16q57 0 93.5 -30t54.5 -77.5t18 -98.5q0 -53 -17.5 -102t-54 -80t-94.5 -31q-38 0 -65.5 14t-45 33t-27 35t-11.5 20v-291h-86zM249 60q42 0 66 20t34.5 51.5t10.5 66.5q0 34 -11.5 65.5t-36.5 52t-66 20.5 q-47 0 -75 -29t-35 -77v-65q7 -47 35.5 -76t77.5 -29zM134 198q0 -16 2 -30v60q-2 -15 -2 -30zM136 93v0q-1 0 0 0z" glyph-name="thorn" horiz-adv-x="485" unicode="þ"/>
<glyph d="M117 632l-81 97v16h72l48 -101v-12h-39z" glyph-name="gravecomb" horiz-adv-x="0" unicode="̀"/>
<glyph d="M75 632h-39v12l48 101h72v-16z" glyph-name="acutecomb" horiz-adv-x="0" unicode="́"/>
<glyph d="M87 661v8l114 106h36l113 -106v-8h-75l-54 59h-4l-52 -59h-78z" glyph-name="uni0302" horiz-adv-x="0" unicode="̂"/>
<glyph d="M239 618q-24 0 -38.5 8.5t-24 19.5t-18.5 19.5t-22 8.5q-17 0 -20.5 -14t-2.5 -39h-52q0 18 3 42t17.5 42t49.5 18q24 0 38.5 -8.5t24 -19.5t19 -19t22.5 -8q17 0 20 14t3 40h51q1 -24 -3 -48t-19 -40t-48 -16z" glyph-name="tildecomb" horiz-adv-x="0" unicode="̃"/>
<glyph d="M100 677q-33 0 -44 16t-11 39q0 21 11 37t44 16t43.5 -16t10.5 -37q0 -23 -10.5 -39t-43.5 -16zM269 677q-33 0 -44 16t-11 39q0 21 11 37t44 16t43.5 -16t10.5 -37q0 -23 -10.5 -39t-43.5 -16z" glyph-name="uni0308" horiz-adv-x="0" unicode="̈"/>
<glyph d="M130 591q-47 0 -71 25.5t-24 67.5q0 44 23.5 70t71.5 26q47 0 72 -26t25 -70q0 -40 -25 -66.5t-72 -26.5zM129 640q23 0 35 13.5t12 32.5q0 20 -12 33.5t-35 13.5q-22 0 -34 -14t-12 -33q0 -20 12.5 -33t33.5 -13z" glyph-name="uni030A" horiz-adv-x="0" unicode="̊"/>
<glyph d="M35 -118l27 41q12 -12 33.5 -19.5t44 -8.5t37.5 6.5t15 25.5q-1 16 -16 22t-35 2.5t-35 -16.5l-36 21l41 87l41 -16l-39 -61q14 12 36.5 17t45.5 1.5t38.5 -18t15.5 -41.5q0 -31 -21.5 -50.5t-54.5 -26t-70 1.5t-68 32z" glyph-name="uni0327" horiz-adv-x="0" unicode="̧"/>
<glyph d="M93 0l-58 41l228 258l191 264l57 -40l-219 -247z" glyph-name="fraction" horiz-adv-x="546" unicode="⁄"/>
<glyph d="M15 0v40l19 10t45 27.5t50 39t36 44.5q16 33 0.5 54.5t-46.5 21.5q-26 0 -42 -17.5t-12 -53.5l-44 6q-5 49 25 77t78 28q35 0 60 -17t33 -44.5t-8 -59.5q-12 -24 -33.5 -44t-45.5 -35.5t-43 -24.5t-24 -11h162v-41h-210z" glyph-name="two.dnom" horiz-adv-x="240"/>
<glyph d="M15 55v41q34 15 58 46t37 67t14 68h52q0 -48 -30.5 -98t-81.5 -83h92v42h48v-42h35v-41h-35v-55h-48v55h-141z" glyph-name="four.dnom" horiz-adv-x="254"/>
<glyph d="M30 0v42h45v185q-5 -23 -18.5 -35t-25.5 -16t-16 -4v53q4 -1 19.5 1t29.5 13.5t16 37.5h42v-235h38v-42h-130z" glyph-name="one.numr" horiz-adv-x="175"/>
<glyph d="M126 -10q-47 0 -79 24.5t-32 73.5l45 7q1 -32 19.5 -48t47.5 -16q24 0 40.5 13t16.5 34q0 23 -18 32t-35 9h-32v25h33q20 0 34 8.5t14 27.5q0 22 -15.5 35t-41.5 13q-31 0 -45.5 -18.5t-14.5 -34.5l-42 6q0 10 9 30.5t31 38t61 17.5q47 0 73.5 -20.5t26.5 -55.5 q0 -23 -13 -39.5t-37 -20.5q24 -4 40 -21.5t16 -41.5q0 -37 -29 -57.5t-73 -20.5z" glyph-name="three.numr" horiz-adv-x="243"/>
</font>
</defs>
</svg>
